<?xml version="1.0" encoding="UTF-8"?>
<svg width="48px" height="48px" viewBox="0 0 48 48" version="1.1" xmlns="http://www.w3.org/2000/svg" xmlns:xlink="http://www.w3.org/1999/xlink">
    <!-- Generator: Sketch 46.2 (44496) - http://www.bohemiancoding.com/sketch -->
    <title>icon-编辑</title>
    <desc>Created with Sketch.</desc>
    <defs></defs>
    <g id="Page-1" stroke="none" stroke-width="1" fill="none" fill-rule="evenodd">
        <g id="管理收货地址" transform="translate(-686.000000, -541.000000)" fill-rule="nonzero" fill="#1773D0">
            <g id="设为默认" transform="translate(0.000000, 502.000000)">
                <g id="icon-编辑" transform="translate(686.000000, 39.000000)">
                    <path d="M13.0893402,32.0573389 C13.0893402,32.0573389 12.7319794,33.8407699 13.446701,34.5541423 C14.1614226,35.2675146 15.9482266,34.9108285 15.9482266,34.9108285 L23.1415293,33.438084 L46.5724579,9.76425976 C47.9668635,8.3724864 48.8622355,6.33918696 46.7180707,4.19906978 L43.8158574,1.30233518 C41.7150195,-0.794536972 39.5340394,-0.0444187961 38.1396337,1.34735456 L14.5648701,24.8776153 L13.0893402,32.0573389 Z M44.6017962,7.73809407 C44.309141,8.03019681 42.3929258,9.9427947 42.3929258,9.9427947 L38.1045962,5.66256035 L40.248761,3.52244317 C40.6061218,3.16575697 41.3926119,3.09412391 41.7499727,3.45081011 L44.5370906,6.37593274 C44.9662199,6.66098587 44.8944514,7.44599133 44.6017962,7.73809407 Z M18.8239662,24.9067936 L35.9604314,7.80267752 L40.248761,12.0829119 L23.1122958,29.187028 L18.8239662,24.9067936 Z M15.9482266,32.0573389 L16.6700248,27.0566689 L20.9583544,31.3369033 L15.9482266,32.0573389 Z" id="Shape"></path>
                    <path d="M45,20 L45,43 C45,44.1882136 44.0458282,45 42.8882677,45 L5.11076484,45 C3.95501835,45 3,44.1882758 3,43 L3,5.25433599 C3,4.06512774 3.95501835,3 5.11076484,3 L29.5,3 C30.4000359,3 31,2.42550614 31,1.5 C31,0.576483136 30.4000359,0 29.5,0 L5.11076484,0 C2.29317178,0 8.39702776e-16,2.35578858 8.39702776e-16,5.25433599 L0,42.7465965 C0,45.6451439 2.29317178,48 5.11076484,48 L42.8882677,48 C45.7077352,48 48,45.6451439 48,42.7465965 L48,20 C47.9963116,19.0782238 47.3948359,18.5 46.5,18.5 C45.6051037,18.5 45.0033861,19.0674071 45,20 Z" id="Shape"></path>
                </g>
            </g>
        </g>
    </g>
</svg>