<?xml version="1.0" encoding="UTF-8"?>
<svg width="48px" height="48px" viewBox="0 0 48 48" version="1.1" xmlns="http://www.w3.org/2000/svg" xmlns:xlink="http://www.w3.org/1999/xlink">
    <!-- Generator: Sketch 46.2 (44496) - http://www.bohemiancoding.com/sketch -->
    <title>icon-删除</title>
    <desc>Created with Sketch.</desc>
    <defs></defs>
    <g id="Page-1" stroke="none" stroke-width="1" fill="none" fill-rule="evenodd">
        <g id="管理收货地址" transform="translate(-883.000000, -541.000000)" fill-rule="nonzero" fill="#1773D0">
            <g id="设为默认" transform="translate(0.000000, 502.000000)">
                <g id="icon-删除" transform="translate(883.000000, 39.000000)">
                    <path d="M8.5,16 C7.5,16 7.01270672,16.3649367 7.01270672,17.0349339 L7.01270672,43 C7.01270672,45.606958 8.3929678,48 11,48 L37,48 C39.6070322,48 40.9975725,45.606958 40.9975725,43 L40.9975725,17.5 C40.9975725,16.8300748 40.5,16 39.5,16 C38.5,16 38,16.8300029 38,17.5 L38,43 C38,44.2564692 37.2617524,45 36,45 L12,45 C10.743495,45 10,44.2565411 10,43 L10,17.0349339 C10.0001438,16.3650086 9.5,16 8.5,16 Z M29.4999116,16 C28.6732061,16 28,16.3495415 28,17 L28,35.822543 C28,36.4704293 28.6731177,37 29.4999116,37 C30.3267939,37 31,36.4704989 31,35.822543 L31,17 C31,16.349472 30.3268823,16 29.4999116,16 Z M18.4999116,16 C17.6730293,16 17,16.3495415 17,17 L17,35.822543 C17,36.4704293 17.672941,37 18.4999116,37 C19.3268823,37 20,36.4704989 20,35.822543 L20,17 C20,16.349472 19.3267939,16 18.4999116,16 Z M1,9 C0.327396044,9 -4.54747351e-13,10 -4.54747351e-13,10.5 C-4.54624886e-13,11 0.327324161,12 1,12 L47,12 C47.672604,12 48,11 48,10.5 C48,10 47.6726758,9 47,9 L38,9 L38,3.5 C38,0.895773433 35.3872921,0 32.8011777,0 L15.2405141,0 C12.6334819,0 10,0.895773433 10,3.5 L10,9 L1,9 Z M35.0484383,9 L12.9566654,9 L12.9566654,5 C12.9566654,3.74079931 13.7433512,3 15,3 L33,3 C34.2617524,3 35.0484383,3.72261357 35.0484383,5 L35.0484383,9 Z" id="Shape"></path>
                </g>
            </g>
        </g>
    </g>
</svg>