<?xml version="1.0" encoding="UTF-8"?>
<svg width="46px" height="55px" viewBox="0 0 46 55" version="1.1" xmlns="http://www.w3.org/2000/svg" xmlns:xlink="http://www.w3.org/1999/xlink">
    <!-- Generator: Sketch 46.2 (44496) - http://www.bohemiancoding.com/sketch -->
    <title>定位</title>
    <desc>Created with Sketch.</desc>
    <defs></defs>
    <g id="Page-1" stroke="none" stroke-width="1" fill="none" fill-rule="evenodd">
        <g id="我的奖品-实物奖品" transform="translate(-54.000000, -759.000000)" fill-rule="nonzero" fill="#1773D0">
            <g id="地址" transform="translate(0.000000, 723.000000)">
                <path d="M95.2772858,46.3228705 C94.4372884,46.3498307 93.7788487,47.0271555 93.806981,47.8358948 C93.8377182,48.3256056 93.9796171,48.646262 94.205913,48.892485 C95.9533733,51.8581011 96.956434,55.3146002 96.956434,59.0057958 C96.956434,63.8295129 95.2442693,68.2529956 92.3948294,71.7025918 C92.3917036,71.7056308 87.2640879,76.8329643 77.0119823,87.0845923 L61.6433316,71.7158765 C58.7513024,68.2108622 57.0552878,63.80646 57.0552878,59.0057307 C57.0552878,47.9873665 65.9875619,39.0550925 77.005926,39.0550925 C80.6095989,39.0550925 83.9899062,40.0108101 86.9076582,41.6822089 C87.181167,41.8931362 87.5311279,42.0149127 87.9088304,42.0029305 C88.7489581,41.9759703 89.4070722,41.2986455 89.3791352,40.4899062 C89.3441651,39.8798515 89.0948815,39.4656812 88.7221282,39.2098203 C88.6504949,39.1624772 88.6049101,39.1359078 88.5578276,39.1116827 C85.1616958,37.1337588 81.2134019,36 76.9999349,36 C64.2976035,36 54,46.2972128 54,58.9999349 C54,64.4989581 55.9301902,69.5470175 59.1495832,73.5042329 C59.2668664,73.6412477 59.3595337,73.7699922 59.4744725,73.8848659 L75.9275853,90.3381089 C76.5266345,90.9368325 77.4975905,90.9368325 78.0965746,90.3381089 L94.5498177,73.8848659 C94.6786924,73.7559911 94.7796952,73.6097291 94.8531519,73.4538291 C98.0862855,69.5041026 100,64.4755145 100,58.9998698 C100,54.5289138 98.724212,50.3560172 96.5170617,46.8251498 C96.2020057,46.5125684 95.7625684,46.3073066 95.2772858,46.3228705 Z M77.0074889,48.2541678 C71.068833,48.2541678 66.2543631,53.0684423 66.2543631,59.0070982 C66.2543631,64.9460146 71.0686377,69.7601589 77.0074889,69.7601589 C82.9464053,69.7601589 87.7605496,64.9459495 87.7605496,59.0070982 C87.7605496,53.0683772 82.9463402,48.2541678 77.0074889,48.2541678 L77.0074889,48.2541678 Z M76.9822871,66.6478901 C72.748372,66.6478901 69.3161631,63.2154858 69.3161631,58.9819614 C69.3161631,54.7481766 72.748372,51.3160328 76.9822871,51.3160328 C81.2158765,51.3160328 84.6478901,54.7482417 84.6478901,58.9819614 C84.6478901,63.2155509 81.2158114,66.6478901 76.9822871,66.6478901 Z" id="定位"></path>
            </g>
        </g>
    </g>
</svg>