<?xml version="1.0" encoding="utf-8"?>
<!-- Generator: Adobe Illustrator 19.0.0, SVG Export Plug-In . SVG Version: 6.00 Build 0)  -->
<svg version="1.1" id="图层_1" xmlns="http://www.w3.org/2000/svg" xmlns:xlink="http://www.w3.org/1999/xlink" x="0px" y="0px"
	 viewBox="-337 488.8 54 54" style="enable-background:new -337 488.8 54 54;" xml:space="preserve">
<style type="text/css">
	.st0{fill:#1773D0;}
	.st1{fill:#166FC9;}
</style>
<title>icon-选中@3x</title>
<desc>Created with Sketch.</desc>
<g id="Page-1">
	<g id="管理收货地址" transform="translate(-54.000000, -538.000000)">
		<g id="设为默认" transform="translate(0.000000, 502.000000)">
			<g id="icon-选中" transform="translate(54.000000, 36.000000)">
				<path class="st0" d="M-310,542.8c-14.9,0-27-12.1-27-27c0-14.9,12.1-27,27-27s27,12.1,27,27C-283,530.7-295.1,542.8-310,542.8z
					 M-310,491.8c-13.2,0-24,10.8-24,24c0,13.2,10.8,24,24,24s24-10.8,24-24C-286,502.6-296.8,491.8-310,491.8z"/>
				<path id="Shape" class="st1" d="M-315,524.8l-8.5-8.5c-0.5-0.5-0.7-1.5,0-2.2s1.7-0.5,2.2,0l7.4,7.4l15.2-15.2
					c0,0,1.1-1.1,2.1,0s0,2.1,0,2.1l-16.3,16.3c0,0-0.4,0.4-1.1,0.4C-314.7,525-315,524.8-315,524.8z"/>
			</g>
		</g>
	</g>
</g>
</svg>
