<?xml version="1.0" encoding="UTF-8"?>
<svg width="72px" height="72px" viewBox="0 0 72 72" version="1.1" xmlns="http://www.w3.org/2000/svg" xmlns:xlink="http://www.w3.org/1999/xlink">
    <!-- Generator: Sketch 46.2 (44496) - http://www.bohemiancoding.com/sketch -->
    <title>icon/72/title返回black@3x</title>
    <desc>Created with Sketch.</desc>
    <defs></defs>
    <g id="Page-1" stroke="none" stroke-width="1" fill="none" fill-rule="evenodd">
        <g id="icon/72/title返回black" fill="#616161">
            <path d="M28.0416306,21.0416306 C28.0416306,20.3749639 28.2082972,19.8749639 28.5416306,19.5416306 C28.8749639,19.2082972 29.3749639,19.0416306 30.0416306,19.0416306 L32.0416306,19.0416306 C32.7082972,19.0416306 33.2082972,19.2082972 33.5416306,19.5416306 C33.8749639,19.8749639 34.0416306,20.3749639 34.0416306,21.0416306 L34.0416306,47.0416306 L60.0416306,47.0416306 C60.7082972,47.0416306 61.2082972,47.2082972 61.5416306,47.5416306 C61.8749639,47.8749639 62.0416306,48.3749639 62.0416306,49.0416306 L62.0416306,51.0416306 C62.0416306,51.7082972 61.8749639,52.2082972 61.5416306,52.5416306 C61.2082972,52.8749639 60.7082972,53.0416306 60.0416306,53.0416306 L30.0416306,53.0416306 C29.3749639,53.0416306 28.8749639,52.8749639 28.5416306,52.5416306 C28.2082972,52.2082972 28.0416306,51.7082972 28.0416306,51.0416306 L28.0416306,21.0416306 Z" id="Path-4" transform="translate(45.041631, 36.041631) rotate(-315.000000) translate(-45.041631, -36.041631) "></path>
        </g>
    </g>
</svg>